<?xml version="1.0" encoding="UTF-8" standalone="no"?>
<svg enable-background="new 0 0 800 600" height="496.06299" viewBox="0 0 708.66145 496.063" width="708.66144" xml:space="preserve" xmlns="http://www.w3.org/2000/svg"><defs></defs>










<path d="m511.35974,105.62708c61.31242,98.76956 30.33685,242.54829-69.17532,321.1549-49.75214,39.30107-260.53514,12.87958-291.18738-36.50855-61.30845-98.76732-30.33685-242.555 69.17532-321.15938s229.88687-62.25429 291.18738,36.51303z" fill="#754c24" stroke="#000" stroke-width="8.42704"></path><path d="m176.32535,404.21586c-40.51062-10.44508-121.155-102.88225-160.12835-88.82122-10.56256,3.80838 58.14464,116.38389 74.83844,130.33975 41.08388,34.34704 93.80145,35.74777 142.97635,35.16152 77.45081-.92412 156.08185,5.1308 233.30457.52136 74.07278-4.42148 139.69948-47.51751 182.16988-115.76631 33.26263-53.4516 33.63753-172.54745-51.8686-130.43372-105.81599,52.11576-88.75324,178.91563-226.47908,176.9913" fill="#c7b299" stroke="#000" stroke-width="8.42704"></path><path d="m216.81218,370.52891c-59.47959-193.11987 40.06828-249.03507 122.30944-246.02103 67.72731,2.48149 116.47576,72.71951 104.09029,151.33732-9.91392,62.89424-61.14581,104.40381-114.44259,92.71016-42.63504-9.35761-70.7721-57.72988-62.84374-108.04886 6.3415-40.25205 39.13403-66.81674 73.24166-59.332 27.28611,5.98556 45.29502,36.94937 40.21706,69.15056-4.05642,25.7614-25.04268,42.76039-46.87197,37.97194-17.46342-3.833-28.98801-23.64688-25.7409-44.2551 2.59651-16.48658 16.0293-27.36799 29.99965-24.30025 11.17548,2.4524 18.55439,15.1306 16.47362,28.32344" fill="none" stroke="#8c6239" stroke-linecap="round" stroke-width="8.42704"></path><path d="m585.21875,151.71875c-28.59688.62065-51.88883,10.81673-69.15625,27.46875-.74781-.631-39.41604,46.57537-35.34375,93.53125 5.65575,65.20262 70.96942,118.90253 105.28125,120.9375v.0625c.33447,0 .68986-.02139 1.03125-.03125 .31993.00943.65466.03125.96875.03125v-.0625c35.73156-1.95247 106.52923-55.38791 105.28125-120.9375-1.04138-54.84339-35.12918-93.95052-35.875-93.1875-17.59104-16.96892-41.12049-27.34503-69.40625-27.8125-.6713,0-1.33441-.01037-2,0-.26.00405-.52213-.00562-.78125,0z" fill="#c7b299" stroke="#000" stroke-linecap="round" stroke-linejoin="round" stroke-width="8.42704" transform="translate(-2.3646767e-6)"></path><g transform="matrix(1.98358,0,0,2.23759,-420.82705,-472.76144)"><path d="m551.029,287.872c.001,8.273-6.704,14.981-14.977,14.981s-14.979-6.708-14.977-14.981 6.704-14.979 14.977-14.979 14.978,6.706 14.977,14.979z" fill="#fff" stroke="#000" stroke-linecap="round" stroke-linejoin="round" stroke-width="4"></path><path d="m537.717,290.517c.001,2.757-2.233,4.994-4.992,4.994s-4.994-2.237-4.992-4.994 2.234-4.995 4.992-4.995 4.993,2.237 4.992,4.995z"></path><path d="m489.75,287.872c.002,8.273-6.703,14.981-14.976,14.981s-14.979-6.708-14.977-14.981 6.703-14.979 14.977-14.979 14.979,6.706 14.976,14.979z" fill="#fff" stroke="#000" stroke-linecap="round" stroke-linejoin="round" stroke-width="4"></path><path d="m483.51,290.517c.001,2.757-2.233,4.994-4.991,4.994s-4.992-2.237-4.991-4.994 2.234-4.995 4.991-4.995 4.992,2.237 4.991,4.995z"></path></g><path d="m684.21875,215.15625c2.29896,11.28865 4.75,23.26215 4.75,35.6875 0,66.79661-72.26514,121-107.28125,121-27.1413,0-80.06991-35.1005-99.6875-83.65625 9.97938,59.51324 74.93517,105.53125 106,105.53125 35.02008,0 107.28125-54.23688 107.28125-121.03125 0-20.82303-4.47702-40.41591-11.0625-57.53125z" fill-opacity=".3137" transform="translate(-2.3646767e-6)"></path><path d="m209.23887,364.32183c-59.47958-193.11764 40.06829-249.03283 122.30945-246.01879 67.72532,2.48149 116.47377,72.71951 104.08831,151.33732-9.91395,62.89647-61.14582,104.40605-114.44259,92.71239-42.63504-9.35761-70.77211-57.73212-62.84374-108.05109 6.3415-40.24981 39.13402-66.81675 73.24165-59.32976 27.28611,5.98556 45.29502,36.94936 40.21706,69.15055-4.05642,25.76364-25.04268,42.76263-46.87395,37.97418-17.46144-3.833-28.98603-23.64687-25.73891-44.25734 2.5965-16.48434 16.03128-27.36575 30.00163-24.29801 11.17548,2.4524 18.55439,15.1306 16.47362,28.32344" fill="none" stroke="#000" stroke-linecap="round" stroke-width="8.42704"></path><path d="m471.57114,462.63045c-74.22157,4.40805-135.01826,1.90643-210.7374,1.01363-61.71905-.72722-140.79243-5.31205-193.65877-49.28969-1.81299-1.50589-4.19725-4.11493-6.99807-7.56082 12.17719,18.35721 23.42011,33.50347 28.95033,38.03236 41.08388,33.65338 93.80145,35.02726 142.97634,34.4522 77.44883-.90846 156.07987,5.02787 233.30854.51241 74.0708-4.33198 139.69948-46.55982 182.1679-113.43474 1.3171-2.07201 2.5727-4.24918 3.7807-6.50691-46.16184,56.00917-112.55817,98.78969-179.78958,102.78156z" fill-opacity=".3137"></path></svg>
